<svg xmlns="http://www.w3.org/2000/svg" xmlns:xlink="http://www.w3.org/1999/xlink" version="1.1" id="Layer_1" x="0px" y="0px" width="300px" height="66px" viewBox="0 0 300 66" enable-background="new 0 0 300 66" xml:space="preserve">
<g>
	<path fill="#ffffff" d="M42.367,5.942L16.446,64.878h-5.275L39.729,1.212h5.366l28.558,63.665h-5.275L42.367,5.942z"/>
	<path fill="#ffffff" d="M148.384,1.212v59.027h35.835v4.638h-40.746V1.212H148.384z"/>
	<g>
		<polygon fill="#ffffff" points="198.317,60.148 198.317,5.851 237.426,5.851 237.426,1.212 193.498,1.212 193.498,64.878     238.518,64.878 238.518,60.148   "/>
		<rect x="205.904" y="30.59" fill="#ffffff" width="29.703" height="4.457"/>
	</g>
	<rect x="248.16" y="1.304" fill="#ffffff" width="50.931" height="4.365"/>
	<rect x="271.169" y="13.255" fill="#ffffff" width="4.912" height="52.441"/>
	<g>
		<polygon fill="#ffffff" points="29.467,1.212 0.909,64.878 6.213,64.878 34.215,1.212   "/>
	</g>
	<path fill="#ffffff" d="M105.76,31.591v4.275h22.192v17.826c-5.457,5.002-12.552,7.367-19.373,7.367   c-18.553,0-28.103-12.916-28.103-27.922C80.386,18.403,89.936,4.76,108.579,4.76c7.185,0,14.917,2.729,20.464,8.186l2.819-3.092   c-6.457-6.368-14.916-9.55-23.284-9.55c-19.372,0-32.923,13.006-32.832,32.924c0,17.372,11.186,32.47,32.832,32.47   c9.459,0,17.372-3.638,24.012-10.277V31.591H105.76z"/>
</g>
</svg>